<svg xmlns="http://www.w3.org/2000/svg" viewBox="0 0 100 100">
  <path d="M50 6 C 78 6, 94 24, 92 52 C 90 76, 70 94, 46 92 C 22 90, 6 72, 8 50 C 10 26, 26 6, 50 6 Z" fill="#F5F4F0"/>
  <path d="M50 18 C 72 18, 84 32, 82 52 C 80 70, 62 84, 46 82 C 28 80, 18 66, 20 50 C 22 32, 32 18, 50 18 Z" fill="#1D9E75"/>
  <path d="M50 32 C 64 32, 72 42, 70 54 C 68 66, 56 72, 46 70 C 34 68, 32 58, 34 50 C 36 42, 42 32, 50 32 Z" fill="#2C2C2A"/>
  <ellipse cx="51" cy="52" rx="10" ry="7" fill="#5DCAA5"/>
  <ellipse cx="48" cy="49" rx="2.4" ry="1.6" fill="#E1F5EE" opacity="0.9"/>
</svg>